<svg width="163" height="105" viewBox="0 0 163 105" xmlns="http://www.w3.org/2000/svg">
    <title>
        logo
    </title>
    <g fill="#000" fill-rule="evenodd">
        <path d="M103.014 94.178l2.077 5.306V95.29c3.608 1.894 7.601 3.797 11.677 5.577V105H94.649l-1.8-5.04H81.902L80.199 105h-20.27l-6.617-12.26h-.34V105H41.78V80.431h-7.426V105h-11.58V80.431H14.31v-9.74h42.31c1.687 0 3.365.17 5.036.51 1.67.338 3.162.936 4.476 1.792s2.376 2.003 3.187 3.44c.81 1.438 1.216 3.24 1.216 5.404 0 2.1-.519 3.95-1.557 5.548-1.038 1.6-2.53 2.835-4.476 3.707l5.49 8.718 11.52-29.119h12.31l2.723 6.957c-2.908 2.009-5.843 3.802-6.501 5.493-.89 2.285 4.787 6.56 12.97 11.037zm-36.61-42.866l3.618 9.242v-7.66c1.805.706 3.868 1.409 6.217 2.109l.218 7.344H63.35l-1.054-2.95H55.89l-.997 2.95H41.641v-7.629h-5.524v7.63H29.34v-14.38h-4.907v14.38h-6.777v-14.38H12.7v-5.7H36.089v6.807h5.524v-6.807h6.805v18.306l7.243-18.306h3.44c-.544 3.002 1.223 6.038 7.304 9.044zm11.473 4.182l3.99 6.853h6.92v-3.13c-3.031-1.187-6.64-2.427-10.91-3.723zM62.402 14.325h-4.298v9.062h5.547v2.617c-.292.161-.698.282-1.217.363a9.807 9.807 0 0 1-1.508.121c-2.757 0-4.76-.75-6.009-2.253-1.248-1.502-1.873-3.449-1.873-5.84 0-1.195.211-2.277.633-3.246a8.2 8.2 0 0 1 1.62-2.462A170.11 170.11 0 0 0 42.686 10.6c-.051.11-.101.222-.15.334-.973 2.23-1.46 4.717-1.46 7.463 0 2.746.487 5.233 1.46 7.462.973 2.23 2.311 4.127 4.014 5.694 1.703 1.567 3.714 2.77 6.033 3.61 2.32.84 4.841 1.26 7.566 1.26.848 0 1.697-.038 2.545-.114 7.578-8.104 22.588-15.625 2.576-21.215-.955-.267-1.91-.523-2.867-.768zM0 9.66c5.897-.48 15.773-.982 27.539-.394.032.348.048.71.048 1.085 0 1.842-.463 3.36-1.387 4.556-.925 1.195-2.149 2.083-3.673 2.665v.145c.81.194 1.605.509 2.384.945a8.555 8.555 0 0 1 2.092 1.648 7.529 7.529 0 0 1 1.46 2.302c.356.872.534 1.84.534 2.907 0 1.874-.38 3.449-1.143 4.725a9.215 9.215 0 0 1-3.016 3.101c-1.25.792-2.676 1.357-4.282 1.696-1.605.34-3.252.509-4.938.509H0V9.66zm40.802.708V35.55H29.125V9.351c3.737.216 7.651.543 11.677 1.017zM127 105h-8.402v-3.343A190.147 190.147 0 0 0 127 105zM10.801 21.836v4.652h3.454c.909 0 1.647-.202 2.214-.606.568-.403.852-.993.852-1.768 0-.453-.122-.824-.365-1.115a2.763 2.763 0 0 0-.9-.702 3.94 3.94 0 0 0-1.144-.364 7.284 7.284 0 0 0-1.143-.097H10.8zm48.362 27.437l-1.651 4.963h3.274l-1.623-4.963zm-6.29 35.907h2.288c.389 0 .819-.032 1.289-.097.47-.064.908-.201 1.314-.411.405-.21.746-.501 1.021-.873.276-.371.414-.864.414-1.478 0-.613-.114-1.098-.34-1.453a2.184 2.184 0 0 0-.877-.8 3.492 3.492 0 0 0-1.167-.34 10.28 10.28 0 0 0-1.168-.072h-2.773v5.524zm34.624-2.52l-2.822 8.48h5.595l-2.773-8.48zM10.8 10.207v4.216h3.114c.81 0 1.476-.186 1.995-.557.519-.372.778-.945.778-1.72 0-.647-.276-1.131-.827-1.454-.551-.323-1.281-.485-2.19-.485h-2.87z"/>
        <path d="M97.513 57.865v-9.96h-4.93v-5.726h23.27v6.836h5.497V42.18h6.771v20.167h-6.743v-7.662h-5.496v7.662h-4.27c-.567-.382-1.408-.775-2.473-1.18V47.905h-4.883v11.712a228.062 228.062 0 0 0-6.743-1.751zM59.78 10.278c.118-.006.237-.009.356-.009 1.42 0 2.614.252 3.583.755.226.117.446.244.658.38.876.227 1.757.461 2.635.702l5.953-7.19c-1.517-1.525-3.478-2.726-5.882-3.602C64.68.438 62.137 0 59.46 0c-2.582 0-5.003.43-7.262 1.29-2.259.86-4.228 2.084-5.906 3.674A16.679 16.679 0 0 0 43.86 7.86c.773.017 1.401.027 1.86.027 2.258 0 7.758.931 14.06 2.392zM78.202 31c4.009-2.433 7.4-4.658 8.811-6.87 1.246 1.468 3.222 2.201 5.927 2.201.484 0 .984-.04 1.5-.121.517-.081.92-.203 1.21-.365v-2.628h-5.518v-9.102h15.733V32.95c-.807.487-1.735.933-2.784 1.339a27.807 27.807 0 0 1-3.34 1.046 35.714 35.714 0 0 1-3.703.706c-1.291.178-2.582.268-3.873.268-2.71 0-5.22-.422-7.528-1.266-2.307-.843-4.308-2.052-6.002-3.626a16.28 16.28 0 0 1-.433-.417zm6.915-12.063c-2.559-1.646-6.767-3.331-11.526-4.873a17.07 17.07 0 0 1 1.05-3.356c.968-2.238 2.291-4.153 3.97-5.743 1.678-1.59 3.646-2.814 5.905-3.674C86.776.43 89.196 0 91.778 0c2.679 0 5.22.438 7.624 1.314 2.405.876 4.365 2.077 5.882 3.602l-6.729 8.128a8.206 8.206 0 0 0-2.517-2.02c-.968-.503-2.162-.755-3.582-.755-.936 0-1.848.187-2.736.56a7.056 7.056 0 0 0-2.347 1.606c-.678.698-1.227 1.533-1.646 2.507-.42.973-.63 2.06-.63 3.26 0 .25.007.494.02.734zM0 6.096V.972h14.087c1.388 0 2.864.106 4.43.317 1.565.21 3.01.632 4.332 1.265a8.511 8.511 0 0 1 3.292 2.774c.403.563.713 1.208.93 1.934C17.073 6.857 5.809 6.357 0 6.095zm40.597 1.672V.973H28.98V7.34c4.424.177 8.502.33 11.618.428zM62.212 42.18h.338l2.348 6.057c-3.43-1.855-4.85-3.829-2.81-5.93l.124-.127zm26.13 13.456V42.179h-6.403l.283 10.226h-.113l-5.723-10.226H69.67v8.146c5.143 1.904 11.978 3.672 18.67 5.31zm10.611 29.538l2.578 6.648c-5.044-1.93-6.945-4.162-2.578-6.648zm16.474-14.447h.755v24.78c-4.296-.792-8.333-1.684-11.618-2.666V82.17c7.094-4.187 10.205-8.066 10.863-11.444zM140.997 99v-3.744h-11.375v-24.53h-11.619v25.108c8.056 1.413 16.759 2.485 22.995 3.166zM107.058.973h23.575v9.637h-12.731v2.969h11.957v9.004H117.9v3.212h13.554v9.637h-24.398V.973zm24.622 0h14.765c1.678 0 3.348.17 5.01.511 1.662.341 3.147.941 4.454 1.801s2.364 2.012 3.17 3.456c.808 1.444 1.211 3.253 1.211 5.426 0 2.11-.516 3.967-1.549 5.573-1.033 1.606-2.517 2.847-4.454 3.723L163 35.432h-13.264l-6.584-12.314h-.339v12.314H131.68V.973zm11.037 14.553h2.276c.387 0 .815-.033 1.283-.098a3.978 3.978 0 0 0 1.307-.413c.403-.211.742-.503 1.016-.876.275-.374.412-.868.412-1.485 0-.616-.113-1.103-.34-1.46a2.18 2.18 0 0 0-.87-.803 3.45 3.45 0 0 0-1.162-.34c-.42-.05-.807-.074-1.162-.074h-2.76v5.549zm-12.97 26.653h13.798v5.64h-7.451v1.737h6.998v5.27h-6.998v1.88h7.933v5.64h-14.28V42.179z"/>
    </g>
</svg>
