<svg width="35" height="35" viewBox="0 0 35 35" xmlns="http://www.w3.org/2000/svg">
  <g fill="#FFF" fill-rule="evenodd">
    <path d="M17.294 8.716c-4.804 0-8.784 3.911-8.784 8.784a8.757 8.757 0 0 0 8.784 8.784c4.873 0 8.784-3.98 8.784-8.784s-3.98-8.784-8.784-8.784zm0 14.411c-3.088 0-5.627-2.539-5.627-5.627 0-3.088 2.539-5.627 5.627-5.627 3.088 0 5.628 2.539 5.628 5.627 0 3.088-2.54 5.627-5.628 5.627z"/>
    <ellipse cx="26.422" cy="8.51" rx="1.99" ry="1.99"/>
    <path d="M31.569 3.363C29.784 1.51 27.245.549 24.363.549H10.225c-5.97 0-9.95 3.98-9.95 9.951v14.069c0 2.95.96 5.49 2.882 7.343 1.853 1.784 4.323 2.676 7.137 2.676h14c2.951 0 5.422-.96 7.206-2.676 1.853-1.785 2.814-4.324 2.814-7.275V10.5c0-2.882-.961-5.353-2.745-7.137zm-.412 21.274c0 2.128-.618 3.843-1.853 5.01-1.235 1.167-2.951 1.784-5.01 1.784h-14c-2.059 0-3.774-.617-5.01-1.784-1.235-1.235-1.853-2.95-1.853-5.078V10.5c0-2.059.618-3.775 1.853-5.01 1.167-1.166 2.951-1.784 5.01-1.784h14.137c2.06 0 3.775.618 5.01 1.853 1.167 1.235 1.853 2.95 1.853 4.941v14.137h-.137z"/>
  </g>
</svg>
