<svg width="38.06" height="32" viewBox="0 0 25 21" xmlns="http://www.w3.org/2000/svg">
  <path d="M25 2.405a10.26 10.26 0 0 1-2.946.808A5.145 5.145 0 0 0 24.31.375a10.279 10.279 0 0 1-3.258 1.245A5.123 5.123 0 0 0 17.308 0a5.13 5.13 0 0 0-4.996 6.298A14.56 14.56 0 0 1 1.74.938a5.106 5.106 0 0 0-.694 2.58c0 1.779.905 3.348 2.281 4.268a5.11 5.11 0 0 1-2.323-.64v.064a5.132 5.132 0 0 0 4.114 5.029 5.124 5.124 0 0 1-2.316.088 5.134 5.134 0 0 0 4.791 3.562 10.289 10.289 0 0 1-6.37 2.196c-.413 0-.822-.025-1.223-.073a14.512 14.512 0 0 0 7.863 2.305c9.433 0 14.593-7.816 14.593-14.594 0-.221-.005-.443-.015-.663A10.414 10.414 0 0 0 25 2.405" fill="#FFF" fill-rule="evenodd"/>
</svg>
